<svg width="40" height="40" viewBox="0 0 40 40" fill="none" xmlns="http://www.w3.org/2000/svg">
  <rect width="40" height="40" rx="20" fill="url(#paint0_linear_136_109)"/>
  <mask id="mask0_136_109" style="mask-type:alpha" maskUnits="userSpaceOnUse" x="0" y="0" width="40"
        height="40">
    <rect width="40" height="40" rx="20" fill="url(#paint1_linear_136_109)"/>
  </mask>
  <g mask="url(#mask0_136_109)">
    <path
      d="M27.1111 29.7778C33.5572 25.2828 21.2785 16.7579 24.8889 9.77778C28.1181 3.53458 40 0 40 0V40H0C0 40 6.51792 30.7795 12.8889 28.8889C18.2239 27.3057 22.5464 32.9609 27.1111 29.7778Z"
      fill="#FFE6E6" fill-opacity="0.1"/>
  </g>
  <path
    d="M16 26.8441V13.1559C16 12.6901 16.5389 12.4311 16.9026 12.7221L25.4577 19.5662C25.7357 19.7886 25.7357 20.2114 25.4577 20.4338L16.9026 27.2779C16.5389 27.5689 16 27.3099 16 26.8441Z"
    fill="#28295B"/>
  <defs>
    <linearGradient id="paint0_linear_136_109" x1="1.71264e-06" y1="36" x2="40" y2="5.33333"
                    gradientUnits="userSpaceOnUse">
      <stop stop-color="#FB72A5"/>
      <stop offset="1" stop-color="#FF7A7B"/>
    </linearGradient>
    <linearGradient id="paint1_linear_136_109" x1="1.71264e-06" y1="36" x2="40" y2="5.33333"
                    gradientUnits="userSpaceOnUse">
      <stop stop-color="#FB72A5"/>
      <stop offset="1" stop-color="#FF7A7B"/>
    </linearGradient>
  </defs>
</svg>
